<?xml version="1.0" encoding="iso-8859-1"?>
<!-- Generator: Adobe Illustrator 21.1.0, SVG Export Plug-In . SVG Version: 6.00 Build 0)  -->
<svg version="1.1" id="Capa_1" xmlns="http://www.w3.org/2000/svg" xmlns:xlink="http://www.w3.org/1999/xlink" x="0px" y="0px"
	 viewBox="0 0 356 512" style="enable-background:new 0 0 356 512;" xml:space="preserve">
<g>
	<path style="fill:#FFFFFF;" d="M120.979,86.617h-30.49V0h-30v86.617H30V0H0v163.724c0,36.49,26.026,67.011,60.489,73.988v48.501
		h-30V512h90V286.213h-30v-48.501c34.463-6.976,60.489-37.498,60.489-73.988V0h-30L120.979,86.617L120.979,86.617z M90.489,482.413
		h-30v-166.2h30V482.413z M120.979,163.724c0,25.083-20.406,45.489-45.489,45.489S30,188.807,30,163.724v-47.107h90.979
		L120.979,163.724z"/>
	<path style="fill:#FFFFFF;" d="M334.305,37.3C318.979,13.26,297.902,0,274.957,0s-44.022,13.26-59.348,37.3
		c-13.99,21.945-21.695,50.824-21.695,81.316s7.705,59.372,21.695,81.317c11.914,18.689,27.306,30.847,44.348,35.334v47.285h-30V512
		h90V282.553h-30v-47.285c17.042-4.488,32.434-16.645,44.348-35.334C348.295,177.988,356,149.109,356,118.617
		S348.295,59.246,334.305,37.3L334.305,37.3z M289.957,482.213h-30v-169.66h30V482.213z M274.957,207.213
		c-27.668,0-51.043-40.572-51.043-88.596s23.375-88.596,51.043-88.596S326,70.593,326,118.617S302.625,207.213,274.957,207.213z"/>
</g>
</svg>
