<?xml version="1.0" encoding="iso-8859-1"?>
<!-- Generator: Adobe Illustrator 21.1.0, SVG Export Plug-In . SVG Version: 6.00 Build 0)  -->
<svg version="1.1" xmlns="http://www.w3.org/2000/svg" xmlns:xlink="http://www.w3.org/1999/xlink" x="0px" y="0px"
	 viewBox="0 0 48.655 52.225" style="enable-background:new 0 0 48.655 52.225;" xml:space="preserve">
<g id="Capa_1">
</g>
<g id="Layer_1">
	<g>
		<path style="fill:#FFFFFF;" d="M27.294,9.998c-0.055-0.468-0.284-0.866-0.594-1.252c-0.554-0.69-1.133-1.371-1.628-2.082
			c-0.585-0.84-0.989-1.718-0.901-2.684c0.094-1.025,0.728-1.861,1.679-2.599c0.259-0.201,0.518-0.41,0.822-0.572
			c0.523-0.278,1.048-0.573,1.635-0.765c0.512-0.167,1.416,0.158,1.642,0.629c0.208,0.435,0.021,0.788-0.464,1.089
			c-0.648,0.404-1.317,0.8-1.882,1.258c-0.462,0.374-0.637,0.848-0.576,1.376c0.084,0.74,0.561,1.359,1.081,1.962
			c0.72,0.835,1.407,1.685,1.765,2.628c0.18,0.474,0.124,1,0.117,1.502c-0.01,0.666-0.46,1.235-0.97,1.762
			c-0.391,0.404-0.856,0.783-1.362,1.117c-0.48,0.316-1.03,0.592-1.599,0.825c-0.578,0.237-1.473-0.113-1.747-0.563
			c-0.305-0.5,0.018-1.02,0.661-1.333c0.838-0.408,1.602-0.881,2.025-1.558C27.141,10.506,27.197,10.246,27.294,9.998z"/>
		<path style="fill:#FFFFFF;" d="M36.202,14.229c-1.074,0.049-1.669-0.777-1.33-1.353c0.16-0.272,0.433-0.439,0.738-0.605
			c0.619-0.337,1.21-0.7,1.351-1.277c0.048-0.196-0.001-0.437-0.126-0.614c-0.397-0.56-0.88-1.089-1.277-1.649
			c-0.369-0.521-0.634-1.069-0.79-1.651c-0.148-0.553,0.034-1.058,0.239-1.565c0.098-0.242,0.305-0.47,0.511-0.68
			c0.601-0.61,1.401-1.08,2.285-1.465c0.596-0.259,1.532,0.035,1.835,0.497c0.39,0.595-0.059,1.052-0.664,1.368
			c-0.67,0.349-1.339,0.726-1.4,1.357c-0.033,0.342,0.133,0.691,0.386,1.018c0.483,0.625,1.053,1.213,1.42,1.89
			c0.33,0.608,0.503,1.209,0.392,1.846c-0.085,0.488-0.394,0.917-0.78,1.327c-0.427,0.454-0.985,0.815-1.581,1.14
			C37.046,14.015,36.689,14.293,36.202,14.229z"/>
		<path style="fill:#FFFFFF;" d="M20.757,10.931c-0.027,1.031-0.726,1.814-1.739,2.481c-0.371,0.244-0.794,0.448-1.203,0.662
			c-0.467,0.244-1.228,0.208-1.633-0.062c-0.65-0.433-0.643-0.955-0.305-1.299c0.274-0.279,0.7-0.492,1.094-0.7
			c0.795-0.422,1.057-0.979,0.78-1.627c-0.157-0.369-0.46-0.713-0.743-1.049c-0.525-0.623-1.045-1.255-1.259-1.963
			c-0.204-0.676-0.168-1.356,0.289-2.016c0.429-0.618,1.055-1.112,1.776-1.533c0.515-0.3,1.068-0.663,1.878-0.497
			c0.685,0.14,1.166,0.776,0.932,1.25c-0.166,0.336-0.515,0.519-0.884,0.727c-0.577,0.325-1.172,0.692-1.258,1.241
			c-0.044,0.282,0.131,0.608,0.316,0.876c0.334,0.484,0.815,0.92,1.113,1.414c0.248,0.411,0.626,0.794,0.653,1.272
			C20.581,10.383,20.69,10.656,20.757,10.931z"/>
		<path style="fill:#FFFFFF;" d="M20.034,27.731c0.107,0.888-1.047,1.725-1.951,1.315c-0.754-0.343-1.432-0.762-2.023-1.335
			c-0.532-0.516-0.994-1.082-1.375-1.72c-0.447-0.749-0.838-1.518-0.958-2.394c-0.056-0.41-0.128-0.823-0.131-1.235
			c-0.007-0.767,0.73-1.473,1.487-1.469c0.513,0.002,1.171,0.587,1.266,1.124c0.084,0.477,0.133,0.963,0.26,1.428
			c0.235,0.859,0.736,1.576,1.338,2.217c0.354,0.377,0.821,0.591,1.293,0.796C19.793,26.696,20.042,27.128,20.034,27.731z"/>
	</g>
	<g>
		<path style="fill:#FFFFFF;" d="M30.094,39.839l-0.021,0.012C30.072,39.85,30.107,39.852,30.094,39.839z"/>
		<path style="fill:#FFFFFF;" d="M48.198,43.72c-0.243-0.485-0.414-1.028-0.748-1.44c-0.572-0.704-1.219-1.34-2.044-1.791
			c-0.878-0.479-1.786-0.788-2.78-0.842c-0.35-0.019-0.702,0.013-1.052-0.004c-0.108-0.005-0.272-0.07-0.309-0.153
			c-0.278-0.62-0.538-1.249-0.79-1.881c-0.262-0.657-0.499-1.324-0.765-1.98c-0.12-0.296-0.247-0.589-0.374-0.882
			c0.368-0.257,0.732-0.519,1.077-0.804c0.564-0.467,1.075-1.001,1.59-1.524c0.308-0.313,0.58-0.662,0.867-0.995
			c0.251-0.291,0.529-0.562,0.746-0.877c0.462-0.67,0.907-1.353,1.33-2.049c0.334-0.55,0.655-1.112,0.923-1.696
			c0.303-0.66,0.578-1.339,0.798-2.031c0.314-0.987,0.589-1.988,0.837-2.995c0.124-0.505,0.162-1.033,0.22-1.553
			c0.092-0.831,0.194-1.663,0.241-2.497c0.027-0.481-0.179-0.937-0.563-1.221c-0.349-0.259-0.783-0.353-1.243-0.353
			c-12.294,0.008-24.587,0.005-36.881,0.012c-0.342,0-0.689,0.059-1.024,0.134c-0.461,0.103-0.919,0.644-0.911,1.116
			c0.013,0.813,0.076,1.625,0.115,2.438c0.008,0.159,0.001,0.318,0.001,0.508c-1.027,0-2.031,0-3.035,0
			c-0.983,0-1.965,0.012-2.948-0.004c-0.505-0.008-0.911,0.23-1.2,0.569c-0.3,0.352-0.336,0.852-0.206,1.298
			c0.116,0.4,0.358,0.772,0.805,0.863c0.428,0.087,0.871,0.13,1.308,0.133c1.813,0.014,3.626,0.006,5.439,0.006
			c0.15,0,0.3,0,0.459,0c1.38,4.714,3.878,8.568,7.721,11.443c-0.085,0.237-0.17,0.475-0.26,0.71
			c-0.144,0.373-0.331,0.728-0.474,1.101c-0.22,0.575-0.406,1.163-0.63,1.736c-0.27,0.693-0.57,1.374-0.845,2.065
			c-0.278,0.697-0.54,1.401-0.813,2.101c-0.153,0.393-0.319,0.781-0.472,1.174c-0.261,0.67-0.514,1.343-0.776,2.012
			c-0.283,0.723-0.575,1.443-0.859,2.166c-0.288,0.733-0.547,1.479-0.862,2.2c-0.286,0.655-0.379,1.234,0.153,1.841
			c0.423,0.482,0.915,0.501,1.445,0.398c0.476-0.092,0.734-0.464,0.907-0.893c0.246-0.609,0.494-1.217,0.734-1.827
			c0.292-0.744,0.599-1.483,0.856-2.238c0.108-0.317,0.222-0.465,0.591-0.465c6.913,0.012,13.826,0.009,20.739,0.009
			c0.105,0,0.216-0.018,0.314,0.008c0.076,0.02,0.172,0.082,0.199,0.149c0.069,0.169,0.129,0.348,0.148,0.528
			c0.106,0.984,0.661,1.763,1.244,2.486c0.393,0.488,0.884,0.916,1.459,1.254c0.945,0.554,1.907,0.976,3.013,1.023
			c0.932,0.039,1.861,0.053,2.736-0.339c0.465-0.208,0.945-0.402,1.368-0.679c0.443-0.289,0.869-0.632,1.225-1.022
			c0.354-0.388,0.613-0.864,0.912-1.302c0.437-0.64,0.66-1.371,0.744-2.12C48.716,45.715,48.68,44.682,48.198,43.72z M14.316,29.314
			c-0.745-0.928-1.387-1.916-1.942-2.947c-0.516-0.959-0.886-2.005-1.24-3.04c-0.307-0.9-0.524-1.833-0.738-2.761
			c-0.111-0.482-0.127-0.985-0.19-1.508c11.603,0,23.176,0,34.855,0c-0.146,0.878-0.263,1.727-0.434,2.564
			c-0.133,0.651-0.292,1.304-0.514,1.929c-0.296,0.837-0.636,1.662-1.011,2.467c-0.247,0.53-0.571,1.028-0.893,1.518
			c-0.428,0.651-0.875,1.292-1.34,1.917c-0.214,0.287-0.491,0.526-0.74,0.786c-0.249,0.259-0.497,0.518-0.749,0.773
			c-0.238,0.241-0.465,0.495-0.724,0.709c-0.368,0.303-0.75,0.593-1.147,0.857c-0.575,0.382-1.142,0.79-1.759,1.091
			c-0.888,0.433-1.798,0.844-2.736,1.147c-0.917,0.296-1.872,0.516-2.828,0.642c-1.172,0.155-2.361,0.242-3.542,0.235
			c-0.766-0.004-1.53-0.227-2.295-0.355c-0.342-0.057-0.687-0.106-1.024-0.188c-0.925-0.222-1.838-0.485-2.684-0.935
			c-0.832-0.442-1.703-0.828-2.481-1.35C16.701,31.887,15.427,30.698,14.316,29.314z M37.282,41.769
			c-0.328,0.387-0.599,0.824-0.872,1.254c-0.133,0.21-0.199,0.462-0.329,0.674c-0.056,0.091-0.19,0.147-0.299,0.19
			c-0.071,0.028-0.162,0.006-0.243,0.006c-6.607,0-13.215,0-19.822,0c-0.138,0-0.276,0-0.476,0c1.375-3.507,1.974-4.888,3.079-7.658
			c1.22,0.584,2.833,1.211,4.915,1.756c0.733,0.177,1.468,0.354,2.213,0.448c0.773,0.097,1.564,0.072,2.347,0.08
			c0.549,0.005,1.104,0.016,1.647-0.051c0.753-0.092,1.497-0.252,2.244-0.387c0.317-0.057,0.637-0.107,0.948-0.19
			c0.676-0.181,1.364-0.338,2.011-0.593c0.076-0.03,0.132-0.04,0.184-0.043c0.302-0.147,1.124-0.551,2.049-1.03
			c0.214,0.518,0.427,1.035,0.639,1.554c0.336,0.826,0.661,1.656,0.992,2.483c0.038,0.094,0.082,0.186,0.139,0.314
			c-0.145,0.121-0.3,0.248-0.452,0.379C37.886,41.222,37.543,41.461,37.282,41.769z M44.26,48.763
			c-0.613,0.395-1.299,0.764-2.012,0.66c-0.734,0.016-1.299-0.197-1.877-0.491c-0.586-0.298-1.041-0.698-1.353-1.241
			c-0.5-0.871-0.728-1.808-0.314-2.786c0.166-0.392,0.384-0.766,0.617-1.124c0.379-0.583,0.976-0.869,1.606-1.101
			c0.67-0.247,1.365-0.3,2.041-0.12c0.506,0.135,1.008,0.304,1.443,0.67c0.335,0.281,0.631,0.578,0.872,0.929
			c0.367,0.534,0.565,1.169,0.542,1.785C45.782,47.116,45.253,48.123,44.26,48.763z"/>
	</g>
</g>
</svg>
