<?xml version="1.0" encoding="iso-8859-1"?>
<!-- Generator: Adobe Illustrator 21.1.0, SVG Export Plug-In . SVG Version: 6.00 Build 0)  -->
<svg version="1.1" id="Layer_1" xmlns="http://www.w3.org/2000/svg" xmlns:xlink="http://www.w3.org/1999/xlink" x="0px" y="0px"
	 viewBox="0 0 8.999 8.999" style="enable-background:new 0 0 8.999 8.999;" xml:space="preserve">
<path style="fill-rule:evenodd;clip-rule:evenodd;fill:#EF445A;" d="M1.075,0.146l7.778,7.778c0.195,0.195,0.195,0.512,0,0.707
	L8.632,8.853c-0.195,0.195-0.512,0.195-0.707,0L0.146,1.075c-0.195-0.195-0.195-0.512,0-0.707l0.221-0.221
	C0.563-0.049,0.879-0.049,1.075,0.146z"/>
<path style="fill-rule:evenodd;clip-rule:evenodd;fill:#EF445A;" d="M8.853,1.075L1.075,8.853c-0.195,0.195-0.512,0.195-0.707,0
	L0.146,8.632c-0.195-0.195-0.195-0.512,0-0.707l7.778-7.778c0.195-0.195,0.512-0.195,0.707,0l0.221,0.221
	C9.048,0.563,9.048,0.879,8.853,1.075z"/>
<g>
</g>
<g>
</g>
<g>
</g>
<g>
</g>
<g>
</g>
<g>
</g>
</svg>
