<?xml version="1.0" encoding="iso-8859-1"?>
<!-- Generator: Adobe Illustrator 21.1.0, SVG Export Plug-In . SVG Version: 6.00 Build 0)  -->
<svg version="1.1" id="Layer_1" xmlns="http://www.w3.org/2000/svg" xmlns:xlink="http://www.w3.org/1999/xlink" x="0px" y="0px"
	 viewBox="0 0 12 9" style="enable-background:new 0 0 12 9;" xml:space="preserve">
<g>
	<g>
		<path style="fill-rule:evenodd;clip-rule:evenodd;fill:#FFFFFF;" d="M11.5,7.719h-11c-0.276,0-0.5,0.224-0.5,0.5V8.5
			C0,8.776,0.224,9,0.5,9h11C11.776,9,12,8.776,12,8.5V8.219C12,7.943,11.776,7.719,11.5,7.719z M11.5,3.844h-11
			c-0.276,0-0.5,0.224-0.5,0.5v0.313c0,0.276,0.224,0.5,0.5,0.5h11c0.276,0,0.5-0.224,0.5-0.5V4.344
			C12,4.068,11.776,3.844,11.5,3.844z M11.5,0h-6C5.224,0,5,0.224,5,0.5v0.281c0,0.276,0.224,0.5,0.5,0.5h6
			c0.276,0,0.5-0.224,0.5-0.5V0.5C12,0.224,11.776,0,11.5,0z"/>
	</g>
</g>
<g>
</g>
<g>
</g>
<g>
</g>
<g>
</g>
<g>
</g>
<g>
</g>
</svg>
