<?xml version="1.0" encoding="iso-8859-1"?>
<!-- Generator: Adobe Illustrator 21.1.0, SVG Export Plug-In . SVG Version: 6.00 Build 0)  -->
<svg version="1.1" id="Layer_1" xmlns="http://www.w3.org/2000/svg" xmlns:xlink="http://www.w3.org/1999/xlink" x="0px" y="0px"
	 viewBox="0 0 6.688 8.917" style="enable-background:new 0 0 6.688 8.917;" xml:space="preserve">
<g>
	<g>
		<path style="fill:#EF445A;" d="M3.344,0C1.5,0,0,1.511,0,3.368c0,2.639,3.03,5.364,3.159,5.479
			c0.053,0.047,0.119,0.071,0.185,0.071c0.066,0,0.132-0.023,0.185-0.07c0.129-0.115,3.159-2.84,3.159-5.479
			C6.688,1.511,5.188,0,3.344,0L3.344,0z M3.344,5.202c-1.024,0-1.858-0.833-1.858-1.858S2.32,1.486,3.344,1.486
			S5.202,2.32,5.202,3.344S4.368,5.202,3.344,5.202L3.344,5.202z M3.344,5.202"/>
	</g>
</g>
<g>
</g>
<g>
</g>
<g>
</g>
<g>
</g>
<g>
</g>
<g>
</g>
</svg>
