<?xml version="1.0" encoding="iso-8859-1"?>
<!-- Generator: Adobe Illustrator 21.1.0, SVG Export Plug-In . SVG Version: 6.00 Build 0)  -->
<svg version="1.1" xmlns="http://www.w3.org/2000/svg" xmlns:xlink="http://www.w3.org/1999/xlink" x="0px" y="0px"
	 viewBox="0 0 36.918 36.913" style="enable-background:new 0 0 36.918 36.913;" xml:space="preserve">
<g id="Capa_1">
</g>
<g id="Layer_1">
	<g>
		<path style="fill:#FFFFFF;" d="M34.7,11.2l-0.762-0.762l-3.611,3.581c-0.688-1.011-1.525-1.983-2.477-2.879l6.399-4.799
			L32.952,4.61L26.15,9.712c-0.446-0.334-0.863-0.619-1.282-0.884l5.646-7.53L28.783,0L22.96,7.766
			c-1.629-0.78-3.199-1.209-4.501-1.209c-1.815,0-4.151,0.837-6.413,2.273c-0.982-1.374-2.589-2.273-4.403-2.273
			c-2.848,0-5.201,2.183-5.457,4.907C0.853,12.223,0,13.646,0,15.21c0,1.516,0.81,2.942,2.115,3.72
			c0.299,0.178,0.575,0.383,0.824,0.607H0v1.082c0,6.55,4.588,12.244,10.888,13.74v2.556H26.03v-2.556
			c6.297-1.495,10.888-7.186,10.888-13.74v-1.082h-0.608c0.398-0.93,0.608-1.94,0.608-2.982C36.918,14.531,36.13,12.63,34.7,11.2
			L34.7,11.2z M34.755,16.554c0,1.077-0.313,2.105-0.895,2.982h-6.022l6.019-5.97C34.441,14.444,34.755,15.475,34.755,16.554
			L34.755,16.554z M18.459,8.72c2.55,0,7.646,2.647,10.303,6.852l-3.997,3.964h-12.47c0.242-0.228,0.511-0.432,0.804-0.607
			c1.304-0.778,2.114-2.203,2.114-3.719c0-1.564-0.853-2.986-2.186-3.745c-0.02-0.214-0.053-0.424-0.097-0.629
			C14.902,9.536,17.014,8.72,18.459,8.72L18.459,8.72z M3.223,17.071c-0.664-0.395-1.06-1.092-1.06-1.862
			c0-0.911,0.585-1.727,1.457-2.031l0.761-0.265l-0.036-0.805C4.257,10.179,5.883,8.72,7.643,8.72c1.772,0,3.314,1.45,3.226,3.389
			l-0.036,0.805l0.761,0.265c0.871,0.304,1.457,1.12,1.457,2.031c0,0.77-0.396,1.466-1.059,1.862
			c-1.019,0.608-1.842,1.452-2.412,2.465H8.725v-2.797l1.846-1.846l-1.53-1.53l-1.398,1.398l-1.399-1.398l-1.53,1.529l1.847,1.847
			v2.797H5.701C5.131,18.556,4.271,17.697,3.223,17.071L3.223,17.071z M24.769,32.407l-0.902,0.152v2.191H13.051v-2.191
			l-0.902-0.152C6.815,31.51,2.71,27.005,2.213,21.699h32.469l0.002,0.192C34.108,27.113,30.038,31.521,24.769,32.407L24.769,32.407
			z M24.769,32.407"/>
		<rect x="19.54" y="13.047" style="fill:#FFFFFF;" width="2.163" height="2.163"/>
		<rect x="21.704" y="15.21" style="fill:#FFFFFF;" width="2.163" height="2.163"/>
	</g>
</g>
</svg>
